<svg xmlns="http://www.w3.org/2000/svg" viewBox="0 0 423.66 27.93"><defs><style>.cls-1{fill:#fff;}</style></defs><title>Asset 1</title><g id="Layer_2" data-name="Layer 2"><g id="Layer_1-2" data-name="Layer 1"><path class="cls-1" d="M6.09,26.72c4.2-.21,4.5-.92,4.5-4.12V2H8c-5.5,0-6,.92-7.31,5.33H0C.25,4.87.38,2.35.46,0h.67a1.82,1.82,0,0,0,.92.88A4,4,0,0,0,3.4,1H20.33a1.92,1.92,0,0,0,2-1L23,0a64.23,64.23,0,0,0,.38,7.14l-.71.17C21.68,2.6,20.08,2,16.51,2H12.77V22.6c0,3.19.29,3.91,4.66,4.12v.59H6.09Z"/><path class="cls-1" d="M25.91,26.72c3.74-.17,4.07-.88,4.07-4.2V5.67c0-3.32-.34-3.78-3.86-4V1H36c4.16,0,8.7,1.26,8.7,6.64,0,3.57-1.89,5.67-5.12,7.14a56.46,56.46,0,0,0,3.74,5.75c2,2.48,5,6.09,7.1,6.6l-.13.55c-3.82,0-5.84-.21-12.18-10.59-1.05-1.51-2.31-1.55-5.88-1.55v7c0,3.32.34,4,3.95,4.2v.59H25.91Zm8.91-12c2.44,0,4-.34,5.13-1.26a6.17,6.17,0,0,0,2.18-5.17c0-4.5-2.9-6.43-7.27-6.43a22,22,0,0,0-2.23.08c-.21,0-.38.13-.38.92V14.7Z"/><path class="cls-1" d="M77.2,13.53c0,5.25-.71,8.65-3.32,11.34a11.05,11.05,0,0,1-7.69,2.94,10.7,10.7,0,0,1-6.85-2.1C57.16,23.94,56,21.34,56,16.59V6c0-3.61-.34-4-4.07-4.37V1H62.08V1.6c-3.57.08-3.86,1-3.86,4.37v9.33c0,7.44,3.4,10.71,9.07,10.71,6.47,0,8.74-5,8.78-12.27V11.51c0-4.58,0-6.3-.34-7.56s-1.6-2.06-4.54-2.35V1H81.53V1.6c-2.31.25-3.7,1-3.91,2.31a44.11,44.11,0,0,0-.42,7.6Z"/><path class="cls-1" d="M84.76,1h5.33l11.09,22.26L112.31,1h6V1.6c-3.91.38-4.28.8-4.12,5l.29,14.91c.13,4.33.29,4.87,4.24,5.21v.59H108.49v-.59c3.7-.29,3.82-.84,3.78-5.21L112.1,3.86h-.17l-11.38,23h-.38L89.84,5.29h-.08l-.55,11.34c-.13,2-.17,3.4-.17,4.54,0,4,.42,5.17,4.33,5.55v.59H83.24v-.59c2.6-.21,3.49-.92,3.82-2.6A58.88,58.88,0,0,0,88,16l.59-7.69c0-1.13.08-2.06.08-2.81,0-3-.71-3.53-3.91-3.91Z"/><path class="cls-1" d="M121.67,26.72c3.61-.17,3.95-.88,3.95-4.2V5.8c0-3.36,0-4-3.7-4.16V1h10c2.65,0,9.16.34,9.16,7.31,0,6.13-5.84,8.65-9.79,8.23l-3.36-.92v7c0,3.28.29,3.86,4.58,4.12v.59h-10.8Zm6.22-12a8.6,8.6,0,0,0,3.57.63c3.74,0,6.81-1.93,6.81-6.81,0-4.58-2.65-6.68-7.81-6.68a12.59,12.59,0,0,0-2.14.08c-.29,0-.42.17-.42,1.05Z"/><path class="cls-1" d="M161.37,26.72c2.39-.34,3.28-.59,3.28-1.6s-1.26-4.37-2.81-8.23h-9.7c-.42.8-2.52,6.47-2.52,7.77s1.13,1.68,3.49,2.06v.59h-9.54v-.59c2.94-.59,3.49-1,5-4.75L157.71.59l.5-.21L161,8.15c1.93,5.25,3.82,10.5,5.42,14.53,1.26,3.11,1.6,3.57,4.54,4v.59h-9.62ZM157.29,4.28C155.61,8,154,12,152.63,15.54h8.82L157.38,4.28Z"/><path class="cls-1" d="M173.25,26.72c3.61-.17,3.95-.88,3.95-4.2V5.8c0-3.36,0-4-3.7-4.16V1h10c2.65,0,9.16.34,9.16,7.31,0,6.13-5.84,8.65-9.79,8.23l-3.36-.92v7c0,3.28.29,3.86,4.58,4.12v.59h-10.8Zm6.22-12a8.6,8.6,0,0,0,3.57.63c3.74,0,6.81-1.93,6.81-6.81,0-4.58-2.65-6.68-7.81-6.68a12.59,12.59,0,0,0-2.14.08c-.29,0-.42.17-.42,1.05Z"/><path class="cls-1" d="M202.27,12.77H220v-7c0-3.28-.34-3.91-3.95-4.2V1h10.17V1.6c-3.7.29-4,.92-4,4.2V22.52c0,3.32.34,3.95,3.91,4.2v.59H215.71v-.59c3.95-.25,4.28-.88,4.28-4.2V14.07H202.27v8.44c0,3.32.38,3.95,4.07,4.2v.59H196.22v-.59c3.53-.25,3.86-.88,3.86-4.2V5.8c0-3.28-.34-3.91-4-4.2V1h10.08V1.6c-3.49.29-3.86.92-3.86,4.2Z"/><path class="cls-1" d="M258.26,13.78c0,8.36-6.68,14.16-14.66,14.16-7.69,0-13.9-5.67-13.9-13.44,0-7.06,5.46-14.11,14.83-14.11C251.54.38,258.26,5.63,258.26,13.78Zm-25.62-.5c0,8.19,5.17,13.65,12,13.65,5.67,0,10.8-3.91,10.8-11.38,0-9.54-5.33-14.16-12.1-14.16C237.72,1.43,232.64,5.17,232.64,13.27Z"/><path class="cls-1" d="M261.49,26.72c2.48-.17,3.65-1,4-2.18s.46-3.57.46-7.81V7.6c0-3.74-.21-3.53-1-4.45s-1.6-1.3-3.82-1.55V1h5.17l19.41,22.18h.13v-12c0-8.19,0-9.28-5-9.62V1h10.42V1.6c-2.44.21-3.49,1-3.86,2.23S287,7.27,287,11.22V27.6h-.46L267.2,5.54h-.08V16.72c0,4.24.08,6.55.38,7.73s1.64,2.06,4.45,2.27v.59H261.49Z"/><path class="cls-1" d="M293.37,26.72c3.95-.21,4.24-.92,4.24-4.16V6.09c0-3.61-.34-4.33-3.82-4.49V1h18.27c0,1.47.21,3.95.38,6.43l-.71.13C310.84,3.28,310,2,305,2H301c-1.13,0-1.18.08-1.18,1.18V13h4.91c3.32,0,4.12-.42,4.75-3.23h.71V17.6h-.71c-.67-3.23-1.55-3.4-4.75-3.4h-4.91v8.19c0,3.95,1.72,3.95,5.21,3.95,2.56,0,5.08,0,6.43-1.6a13.07,13.07,0,0,0,2.35-4.16h.71c-.38,1.55-1.18,5.29-1.51,6.72H293.37Z"/><path class="cls-1" d="M318.86,25.88a1.87,1.87,0,1,1,3.74,0,1.87,1.87,0,1,1-3.74,0Z"/><path class="cls-1" d="M353.94,19.66a66.46,66.46,0,0,1-2.18,7.1,51.82,51.82,0,0,1-8.44,1.18c-11,0-15.71-7.06-15.67-13.4,0-8.4,7.06-14.16,16.55-14.16a29.44,29.44,0,0,1,7.94,1.18c.34,2.1.55,4.12.8,6.51l-.71.13c-1.18-4.87-4-6.76-9.49-6.76-8.32,0-12.06,5.5-12.06,12.06,0,8.15,4.87,13.44,12.31,13.44,5.84,0,8.23-3.15,10.25-7.48Z"/><path class="cls-1" d="M385.35,13.78c0,8.36-6.68,14.16-14.66,14.16-7.69,0-13.9-5.67-13.9-13.44,0-7.06,5.46-14.11,14.83-14.11C378.63.38,385.35,5.63,385.35,13.78Zm-25.62-.5c0,8.19,5.17,13.65,12,13.65,5.67,0,10.8-3.91,10.8-11.38,0-9.54-5.33-14.16-12.1-14.16C364.81,1.43,359.73,5.17,359.73,13.27Z"/><path class="cls-1" d="M389.63,1H395l11.09,22.26L417.19,1h6V1.6c-3.91.38-4.28.8-4.12,5l.29,14.91c.13,4.33.29,4.87,4.24,5.21v.59H413.36v-.59c3.7-.29,3.82-.84,3.78-5.21L417,3.86h-.17l-11.38,23H405L394.71,5.29h-.08l-.55,11.34c-.13,2-.17,3.4-.17,4.54,0,4,.42,5.17,4.33,5.55v.59H388.12v-.59c2.6-.21,3.49-.92,3.82-2.6a58.88,58.88,0,0,0,.92-8.11l.59-7.69c0-1.13.08-2.06.08-2.81,0-3-.71-3.53-3.91-3.91Z"/></g></g></svg>