<svg xmlns="http://www.w3.org/2000/svg" viewBox="0 0 92.66 9.67"><defs><style>.cls-1{fill:#fff;}</style></defs><title>Asset 1</title><g id="Layer_2" data-name="Layer 2"><g id="Layer_1-2" data-name="Layer 1"><path class="cls-1" d="M0,.17H5.63A4,4,0,0,1,8,.77a2,2,0,0,1,.85,1.76,2.08,2.08,0,0,1-.22,1,2.25,2.25,0,0,1-.53.67,2.53,2.53,0,0,1-.65.41,3,3,0,0,1-.59.19v.12A4.9,4.9,0,0,1,7.46,5a2.22,2.22,0,0,1,.73.32A2,2,0,0,1,8.79,6,2.11,2.11,0,0,1,9,7.08,2.07,2.07,0,0,1,8,9a3.32,3.32,0,0,1-1.09.41,6.51,6.51,0,0,1-1.3.13H0v-2H.72V2.14H0ZM4.73,4.1a.69.69,0,0,0,.52-.18.83.83,0,0,0,.17-.59V2.9a.83.83,0,0,0-.17-.59.69.69,0,0,0-.52-.18H4.08v2Zm.08,3.43a.7.7,0,0,0,.52-.18.83.83,0,0,0,.17-.59V6.24a.83.83,0,0,0-.17-.59.7.7,0,0,0-.52-.18H4.08V7.54Z"/><path class="cls-1" d="M15.07,2.14H13.62V4h1.06V5.4H13.62V7.54h1.45V5.64h2.69V9.5H9.54v-2h.72V2.14H9.54v-2h8.22V3.79H15.07Z"/><path class="cls-1" d="M22.44,7.54h.79v2H18.36v-2h.72V2.14h-.72v-2H24a5.62,5.62,0,0,1,1.33.14,2.59,2.59,0,0,1,1,.46,2.08,2.08,0,0,1,.63.83,3.2,3.2,0,0,1,.22,1.26,2.86,2.86,0,0,1-.32,1.38,1.76,1.76,0,0,1-.93.83V5.2a1.26,1.26,0,0,1,1.15,1.42v.92h.56v2h-3.8V6.68a1.8,1.8,0,0,0-.08-.58.64.64,0,0,0-.25-.34,1.11,1.11,0,0,0-.44-.16,4.16,4.16,0,0,0-.64,0Zm.65-3.43a.69.69,0,0,0,.52-.18.83.83,0,0,0,.17-.59V2.9a.83.83,0,0,0-.17-.59.69.69,0,0,0-.52-.18h-.65v2Z"/><path class="cls-1" d="M35,.17h4.2v2h-.72V9.5H35.08L31.56,4.09V7.54h.72v2h-4.2v-2h.72V2.14h-.72v-2h4.45L35.69,5V2.14H35Z"/><path class="cls-1" d="M39.53.17h4.8v2h-.72v5.4h.72v2h-4.8v-2h.72V2.14h-.72Z"/><path class="cls-1" d="M50.34,2.14H48.89V4h1.06V5.4H48.89V7.54h1.45V5.64H53V9.5H44.81v-2h.72V2.14h-.72v-2H53V3.79H50.34Z"/><path class="cls-1" d="M53.8,7.54h1.87v2H53.8Z"/><path class="cls-1" d="M61.86,5.68h2.88V8.78q-.24.14-.58.31a5,5,0,0,1-.79.29,8.23,8.23,0,0,1-1,.21,8.86,8.86,0,0,1-1.28.08,6.43,6.43,0,0,1-1.91-.26,3.59,3.59,0,0,1-1.45-.84,3.76,3.76,0,0,1-.92-1.49,6.77,6.77,0,0,1-.32-2.24,6.78,6.78,0,0,1,.32-2.23,3.79,3.79,0,0,1,.92-1.5A3.55,3.55,0,0,1,59.15.26,6.39,6.39,0,0,1,61,0a8.77,8.77,0,0,1,1.28.08,8.35,8.35,0,0,1,1,.21,5,5,0,0,1,.79.29l.61.31v3H61.86V3a1,1,0,0,0-.2-.68,1,1,0,0,0-1.22,0,1,1,0,0,0-.2.68V6.65a.94.94,0,0,0,.2.68,1,1,0,0,0,1.22,0,1,1,0,0,0,.2-.68Z"/><path class="cls-1" d="M70.66.17h4.69v2h-.72v5.4h.72v2H70.66v-2h.61v-2h-1.8v2h.61v2H65.39v-2h.72V2.14h-.72v-2h4.69v2h-.61V4h1.8V2.14h-.61Z"/><path class="cls-1" d="M80.41,7.54h.72l-.2-.95H79.31l-.19.95h.72v2h-4.1v-2h.48l2-7.37h4.37l2,7.37h.48v2h-4.7Zm-.84-2.22h1.1l-.49-2.4h-.12Z"/><path class="cls-1" d="M83.64.17h9V3.08H90.6V2.14h-.77v5.4h.84v2h-5v-2h.84V2.14H85.7v.95H83.64Z"/></g></g></svg>