<?xml version="1.0" encoding="utf-8"?>
<svg x="0px" y="0px" 	 viewBox="0 0 1366 768" style="enable-background:new 0 0 1366 768;">
<g>
	<path class="st0" d="M178.7,276.5c4.2-0.2,4.5-0.9,4.5-4.1v-20.6h-2.6c-5.5,0-6,0.9-7.3,5.3h-0.7c0.3-2.5,0.4-5,0.5-7.4h0.7
		c0.3,0.5,0.6,0.8,0.9,0.9c0.3,0.1,0.8,0.1,1.3,0.1H193c1.1,0,1.4-0.2,2-1l0.7,0c-0.1,2,0.2,4.6,0.4,7.1l-0.7,0.2
		c-1-4.7-2.6-5.3-6.2-5.3h-3.7v20.6c0,3.2,0.3,3.9,4.7,4.1v0.6h-11.3V276.5z"/>
	<path class="st0" d="M198.6,276.5c3.7-0.2,4.1-0.9,4.1-4.2v-16.8c0-3.3-0.3-3.8-3.9-4v-0.6h9.9c4.2,0,8.7,1.3,8.7,6.6
		c0,3.6-1.9,5.7-5.1,7.1c0.7,1.3,2.4,4,3.7,5.8c2,2.5,5,6.1,7.1,6.6l-0.1,0.5c-3.8,0-5.8-0.2-12.2-10.6c-1.1-1.5-2.3-1.6-5.9-1.6v7
		c0,3.3,0.3,4,3.9,4.2v0.6h-10.3V276.5z M207.5,264.4c2.4,0,4-0.3,5.1-1.3c1.4-1.1,2.2-2.8,2.2-5.2c0-4.5-2.9-6.4-7.3-6.4
		c-1.1,0-1.8,0-2.2,0.1c-0.2,0-0.4,0.1-0.4,0.9v11.8H207.5z"/>
	<path class="st0" d="M249.8,263.3c0,5.3-0.7,8.7-3.3,11.3c-1.8,1.8-4.7,2.9-7.7,2.9c-2.5,0-4.9-0.5-6.8-2.1
		c-2.2-1.8-3.3-4.4-3.3-9.1v-10.6c0-3.6-0.3-4-4.1-4.4v-0.6h10.1v0.6c-3.6,0.1-3.9,1-3.9,4.4v9.3c0,7.4,3.4,10.7,9.1,10.7
		c6.5,0,8.7-5,8.8-12.3v-2.2c0-4.6,0-6.3-0.3-7.6c-0.3-1.3-1.6-2.1-4.5-2.4v-0.6h10.3v0.6c-2.3,0.3-3.7,1-3.9,2.3s-0.4,3-0.4,7.6
		V263.3z"/>
	<path class="st0" d="M257.4,250.8h5.3l11.1,22.3l11.1-22.3h6v0.6c-3.9,0.4-4.3,0.8-4.1,5l0.3,14.9c0.1,4.3,0.3,4.9,4.2,5.2v0.6
		h-10.3v-0.6c3.7-0.3,3.8-0.8,3.8-5.2l-0.2-17.6h-0.2l-11.4,23h-0.4L262.5,255h-0.1l-0.5,11.3c-0.1,2-0.2,3.4-0.2,4.5
		c0,4,0.4,5.2,4.3,5.5v0.6h-10.1v-0.6c2.6-0.2,3.5-0.9,3.8-2.6c0.3-1.3,0.6-3.8,0.9-8.1l0.6-7.7c0-1.1,0.1-2.1,0.1-2.8
		c0-3-0.7-3.5-3.9-3.9V250.8z"/>
	<path class="st0" d="M294.3,276.5c3.6-0.2,3.9-0.9,3.9-4.2v-16.7c0-3.4,0-4-3.7-4.2v-0.6h10c2.6,0,9.2,0.3,9.2,7.3
		c0,6.1-5.8,8.7-9.8,8.2l-3.4-0.9v7c0,3.3,0.3,3.9,4.6,4.1v0.6h-10.8V276.5z M300.5,264.4c0.5,0.2,1.6,0.6,3.6,0.6
		c3.7,0,6.8-1.9,6.8-6.8c0-4.6-2.6-6.7-7.8-6.7c-1.1,0-1.8,0-2.1,0.1c-0.3,0-0.4,0.2-0.4,1.1V264.4z"/>
	<path class="st0" d="M334,276.5c2.4-0.3,3.3-0.6,3.3-1.6c0-1.1-1.3-4.4-2.8-8.2h-9.7c-0.4,0.8-2.5,6.5-2.5,7.8
		c0,1.4,1.1,1.7,3.5,2.1v0.6h-9.5v-0.6c2.9-0.6,3.5-1,5-4.7l9.1-21.4l0.5-0.2l2.8,7.8c1.9,5.3,3.8,10.5,5.4,14.5
		c1.3,3.1,1.6,3.6,4.5,4v0.6H334V276.5z M329.9,254c-1.7,3.7-3.3,7.7-4.7,11.3h8.8L329.9,254L329.9,254z"/>
	<path class="st0" d="M345.9,276.5c3.6-0.2,3.9-0.9,3.9-4.2v-16.7c0-3.4,0-4-3.7-4.2v-0.6h10c2.6,0,9.2,0.3,9.2,7.3
		c0,6.1-5.8,8.7-9.8,8.2l-3.4-0.9v7c0,3.3,0.3,3.9,4.6,4.1v0.6h-10.8V276.5z M352.1,264.4c0.5,0.2,1.6,0.6,3.6,0.6
		c3.7,0,6.8-1.9,6.8-6.8c0-4.6-2.6-6.7-7.8-6.7c-1.1,0-1.8,0-2.1,0.1c-0.3,0-0.4,0.2-0.4,1.1V264.4z"/>
	<path class="st0" d="M374.9,262.5h17.7v-7c0-3.3-0.3-3.9-3.9-4.2v-0.6h10.2v0.6c-3.7,0.3-4,0.9-4,4.2v16.7c0,3.3,0.3,3.9,3.9,4.2
		v0.6h-10.4v-0.6c3.9-0.3,4.3-0.9,4.3-4.2v-8.4h-17.7v8.4c0,3.3,0.4,3.9,4.1,4.2v0.6h-10.1v-0.6c3.5-0.3,3.9-0.9,3.9-4.2v-16.7
		c0-3.3-0.3-3.9-4-4.2v-0.6h10.1v0.6c-3.5,0.3-3.9,0.9-3.9,4.2V262.5z"/>
	<path class="st0" d="M430.9,263.5c0,8.4-6.7,14.2-14.7,14.2c-7.7,0-13.9-5.7-13.9-13.4c0-7.1,5.5-14.1,14.8-14.1
		C424.2,250.1,430.9,255.4,430.9,263.5z M405.3,263c0,8.2,5.2,13.7,12,13.7c5.7,0,10.8-3.9,10.8-11.4c0-9.5-5.3-14.2-12.1-14.2
		C410.4,251.2,405.3,254.9,405.3,263z"/>
	<path class="st0" d="M434.1,276.5c2.5-0.2,3.7-1,4-2.2c0.3-1.3,0.5-3.6,0.5-7.8v-9.1c0-3.7-0.2-3.5-1-4.5c-0.7-0.8-1.6-1.3-3.8-1.6
		v-0.6h5.2l19.4,22.2h0.1v-12c0-8.2,0-9.3-5-9.6v-0.6H464v0.6c-2.4,0.2-3.5,1-3.9,2.2c-0.4,1.3-0.4,3.4-0.4,7.4v16.4h-0.5
		l-19.4-22.1h-0.1v11.2c0,4.2,0.1,6.6,0.4,7.7c0.4,1.3,1.6,2.1,4.5,2.3v0.6h-10.5V276.5z"/>
	<path class="st0" d="M466,276.5c3.9-0.2,4.2-0.9,4.2-4.2v-16.5c0-3.6-0.3-4.3-3.8-4.5v-0.6h18.3c0,1.5,0.2,3.9,0.4,6.4l-0.7,0.1
		c-0.9-4.3-1.7-5.5-6.8-5.5h-3.9c-1.1,0-1.2,0.1-1.2,1.2v9.8h4.9c3.3,0,4.1-0.4,4.7-3.2h0.7v7.8h-0.7c-0.7-3.2-1.6-3.4-4.7-3.4h-4.9
		v8.2c0,3.9,1.7,3.9,5.2,3.9c2.6,0,5.1,0,6.4-1.6c0.7-0.8,1.7-2.3,2.4-4.2h0.7c-0.4,1.6-1.2,5.3-1.5,6.7H466V276.5z"/>
	<path class="st0" d="M491.5,275.6c0-1.1,0.8-1.9,1.8-1.9c1.1,0,1.9,0.9,1.9,1.9c0,1.1-0.8,1.9-1.9,1.9
		C492.2,277.5,491.5,276.7,491.5,275.6z"/>
	<path class="st0" d="M526.6,269.4c-0.6,2.2-1.6,5.7-2.2,7.1c-1.3,0.2-5.3,1.2-8.4,1.2c-11,0-15.7-7.1-15.7-13.4
		c0-8.4,7.1-14.2,16.6-14.2c4.1,0,6.8,0.9,7.9,1.2c0.3,2.1,0.5,4.1,0.8,6.5l-0.7,0.1c-1.2-4.9-4-6.8-9.5-6.8
		c-8.3,0-12.1,5.5-12.1,12.1c0,8.1,4.9,13.4,12.3,13.4c5.8,0,8.2-3.2,10.2-7.5L526.6,269.4z"/>
	<path class="st0" d="M558,263.5c0,8.4-6.7,14.2-14.7,14.2c-7.7,0-13.9-5.7-13.9-13.4c0-7.1,5.5-14.1,14.8-14.1
		C551.3,250.1,558,255.4,558,263.5z M532.4,263c0,8.2,5.2,13.7,12,13.7c5.7,0,10.8-3.9,10.8-11.4c0-9.5-5.3-14.2-12.1-14.2
		C537.4,251.2,532.4,254.9,532.4,263z"/>
	<path class="st0" d="M562.3,250.8h5.3l11.1,22.3l11.1-22.3h6v0.6c-3.9,0.4-4.3,0.8-4.1,5l0.3,14.9c0.1,4.3,0.3,4.9,4.2,5.2v0.6H586
		v-0.6c3.7-0.3,3.8-0.8,3.8-5.2l-0.2-17.6h-0.2l-11.4,23h-0.4L567.4,255h-0.1l-0.5,11.3c-0.1,2-0.2,3.4-0.2,4.5c0,4,0.4,5.2,4.3,5.5
		v0.6h-10.1v-0.6c2.6-0.2,3.5-0.9,3.8-2.6c0.3-1.3,0.6-3.8,0.9-8.1l0.6-7.7c0-1.1,0.1-2.1,0.1-2.8c0-3-0.7-3.5-3.9-3.9V250.8z"/>
</g>
</svg>