<?xml version="1.0" encoding="utf-8"?>
<!-- Generator: Adobe Illustrator 21.0.0, SVG Export Plug-In . SVG Version: 6.00 Build 0)  -->
<svg version="1.1" id="Layer_1" xmlns="http://www.w3.org/2000/svg" xmlns:xlink="http://www.w3.org/1999/xlink" x="0px" y="0px"
	 viewBox="0 0 1366 768" style="enable-background:new 0 0 1366 768;" xml:space="preserve">
<style type="text/css">
	.st0{fill:#FFFFFF;}
</style>
<g>
	<path class="st0" d="M586.3,360.7h5.6c1,0,1.8,0.2,2.3,0.6c0.6,0.4,0.9,1,0.9,1.8c0,0.4-0.1,0.7-0.2,1c-0.1,0.3-0.3,0.5-0.5,0.7
		s-0.4,0.3-0.7,0.4c-0.2,0.1-0.4,0.2-0.6,0.2v0.1c0.2,0,0.4,0.1,0.6,0.1c0.3,0.1,0.5,0.2,0.7,0.3c0.2,0.2,0.4,0.4,0.6,0.6
		c0.2,0.3,0.2,0.6,0.2,1.1c0,0.4-0.1,0.8-0.3,1.1c-0.2,0.3-0.4,0.6-0.7,0.8c-0.3,0.2-0.7,0.3-1.1,0.4s-0.8,0.1-1.3,0.1h-5.6v-2h0.7
		v-5.4h-0.7V360.7z M591,364.6c0.2,0,0.4-0.1,0.5-0.2c0.1-0.1,0.2-0.3,0.2-0.6v-0.4c0-0.3-0.1-0.5-0.2-0.6c-0.1-0.1-0.3-0.2-0.5-0.2
		h-0.6v2H591z M591.1,368c0.2,0,0.4-0.1,0.5-0.2c0.1-0.1,0.2-0.3,0.2-0.6v-0.5c0-0.3-0.1-0.5-0.2-0.6c-0.1-0.1-0.3-0.2-0.5-0.2h-0.7
		v2.1H591.1z"/>
	<path class="st0" d="M601.4,362.6h-1.5v1.9h1.1v1.4h-1.1v2.1h1.5v-1.9h2.7v3.9h-8.2v-2h0.7v-5.4h-0.7v-2h8.2v3.6h-2.7V362.6z"/>
	<path class="st0" d="M608.8,368h0.8v2h-4.9v-2h0.7v-5.4h-0.7v-2h5.6c0.5,0,0.9,0,1.3,0.1c0.4,0.1,0.7,0.2,1,0.5
		c0.3,0.2,0.5,0.5,0.6,0.8c0.1,0.3,0.2,0.8,0.2,1.3c0,0.5-0.1,1-0.3,1.4s-0.5,0.7-0.9,0.8l0,0.1c0.8,0.1,1.2,0.6,1.2,1.4v0.9h0.6v2
		h-3.8v-2.8c0-0.2,0-0.4-0.1-0.6s-0.1-0.3-0.3-0.3c-0.1-0.1-0.3-0.1-0.4-0.2c-0.2,0-0.4,0-0.6,0V368z M609.4,364.6
		c0.2,0,0.4-0.1,0.5-0.2c0.1-0.1,0.2-0.3,0.2-0.6v-0.4c0-0.3-0.1-0.5-0.2-0.6c-0.1-0.1-0.3-0.2-0.5-0.2h-0.6v2H609.4z"/>
	<path class="st0" d="M621.3,360.7h4.2v2h-0.7v7.4h-3.4l-3.5-5.4v3.4h0.7v2h-4.2v-2h0.7v-5.4h-0.7v-2h4.5l3.2,4.8v-2.9h-0.7V360.7z"
		/>
	<path class="st0" d="M625.8,360.7h4.8v2h-0.7v5.4h0.7v2h-4.8v-2h0.7v-5.4h-0.7V360.7z"/>
	<path class="st0" d="M636.7,362.6h-1.5v1.9h1.1v1.4h-1.1v2.1h1.5v-1.9h2.7v3.9h-8.2v-2h0.7v-5.4h-0.7v-2h8.2v3.6h-2.7V362.6z"/>
	<path class="st0" d="M640.1,368h1.9v2h-1.9V368z"/>
	<path class="st0" d="M648.2,366.2h2.9v3.1c-0.2,0.1-0.4,0.2-0.6,0.3c-0.2,0.1-0.5,0.2-0.8,0.3s-0.6,0.2-1,0.2s-0.8,0.1-1.3,0.1
		c-0.7,0-1.3-0.1-1.9-0.3c-0.6-0.2-1.1-0.5-1.5-0.8c-0.4-0.4-0.7-0.9-0.9-1.5c-0.2-0.6-0.3-1.4-0.3-2.2c0-0.9,0.1-1.6,0.3-2.2
		s0.5-1.1,0.9-1.5c0.4-0.4,0.9-0.7,1.4-0.8c0.6-0.2,1.2-0.3,1.9-0.3c0.5,0,0.9,0,1.3,0.1s0.7,0.1,1,0.2c0.3,0.1,0.6,0.2,0.8,0.3
		c0.2,0.1,0.4,0.2,0.6,0.3v3h-2.9v-0.9c0-0.3-0.1-0.5-0.2-0.7c-0.1-0.1-0.3-0.2-0.6-0.2c-0.3,0-0.5,0.1-0.6,0.2
		c-0.1,0.1-0.2,0.4-0.2,0.7v3.6c0,0.3,0.1,0.5,0.2,0.7c0.1,0.1,0.3,0.2,0.6,0.2c0.3,0,0.5-0.1,0.6-0.2c0.1-0.1,0.2-0.4,0.2-0.7
		V366.2z"/>
	<path class="st0" d="M657,360.7h4.7v2h-0.7v5.4h0.7v2H657v-2h0.6v-2h-1.8v2h0.6v2h-4.7v-2h0.7v-5.4h-0.7v-2h4.7v2h-0.6v1.8h1.8
		v-1.8H657V360.7z"/>
	<path class="st0" d="M666.7,368h0.7l-0.2-0.9h-1.6l-0.2,0.9h0.7v2H662v-2h0.5l2-7.4h4.4l2,7.4h0.5v2h-4.7V368z M665.9,365.8h1.1
		l-0.5-2.4h-0.1L665.9,365.8z"/>
	<path class="st0" d="M670,360.7h9v2.9h-2.1v-0.9h-0.8v5.4h0.8v2h-5v-2h0.8v-5.4H672v0.9H670V360.7z"/>
</g>
</svg>
